<?xml version="1.0" encoding="utf-8"?><svg xmlns="http://www.w3.org/2000/svg" xmlns:xlink="http://www.w3.org/1999/xlink"><symbol viewBox="0 0 48 48" id="arrow-down" xmlns="http://www.w3.org/2000/svg"><circle cx="24" cy="24" r="24"/><path d="M19.41 22L24 26.3266L28.59 22L30 23.332L24 29L18 23.332L19.41 22Z"/></symbol><symbol viewBox="0 0 17 17" id="card" xmlns="http://www.w3.org/2000/svg"><path d="M12.3629 9.35C13.0002 9.35 13.561 9.0015 13.8499 8.4745L16.8917 2.958C17.2061 2.397 16.7983 1.7 16.1525 1.7H3.57717L2.77847 0H0V1.7H1.69937L4.75823 8.1515L3.61116 10.2255C2.99089 11.3645 3.80659 12.75 5.09811 12.75H15.2943V11.05H5.09811L6.03276 9.35H12.3629ZM4.38437 3.4H14.708L12.3629 7.65H6.39812L4.38437 3.4ZM5.09811 13.6C4.16345 13.6 3.40723 14.365 3.40723 15.3C3.40723 16.235 4.16345 17 5.09811 17C6.03276 17 6.79748 16.235 6.79748 15.3C6.79748 14.365 6.03276 13.6 5.09811 13.6ZM13.595 13.6C12.6603 13.6 11.9041 14.365 11.9041 15.3C11.9041 16.235 12.6603 17 13.595 17C14.5296 17 15.2943 16.235 15.2943 15.3C15.2943 14.365 14.5296 13.6 13.595 13.6Z"/></symbol><symbol viewBox="0 0 154 48" id="logo" xmlns="http://www.w3.org/2000/svg"><path d="M70 0H42V48H70V0Z"/><path d="M58.0811 29.4115C59.1892 29.3971 60.2912 29.5767 61.3362 29.9422C62.2533 30.2627 63.1011 30.7517 63.8351 31.3837C64.5187 31.9795 65.065 32.7141 65.4368 33.5377C65.8082 34.3788 66 35.2871 66 36.2053C66 37.1235 65.8082 38.0318 65.4368 38.8729C65.0652 39.6967 64.5189 40.4316 63.8351 41.0275C63.101 41.6595 62.2532 42.1485 61.3362 42.469C60.2912 42.8345 59.1892 43.014 58.0811 42.9991H45V22H63.6952V26.941H51.2317V29.4115H58.0811ZM57.6114 38.0582C58.1747 38.0786 58.7248 37.8859 59.1501 37.5192C59.3409 37.3565 59.4941 37.1549 59.599 36.9281C59.704 36.7013 59.7583 36.4548 59.7583 36.2053C59.7583 35.9558 59.704 35.7093 59.599 35.4825C59.4941 35.2558 59.3409 35.0541 59.1501 34.8914C58.7247 34.5249 58.1747 34.3323 57.6114 34.3524H51.2317V38.0582H57.6114Z"/><path d="M101 0H73V48H101V0Z"/><path d="M83.1765 22V33.5003L93.3236 22H98V43H91.8235V31.8824L81.6752 43H77V22H83.1765Z"/><path d="M38 0H0V48H38V0Z"/><path d="M21.5648 22V30.8343L26.2938 22H33.2997L27.1694 32.3335L34 43H26.9942L21.5648 33.9998V43H15.4352V33.9998L10.0058 43H3L9.83061 32.3335L3.70094 22H10.7062L15.4352 30.8343V22H21.5648Z"/><path d="M122.621 28.0011C123.565 27.9895 124.5 28.1787 125.367 28.5566C126.173 28.9115 126.893 29.4399 127.478 30.1052C128.067 30.7847 128.498 31.5903 128.738 32.4618C129.003 33.4434 129.068 34.4695 128.928 35.4774C128.809 36.5344 128.496 37.5596 128.006 38.5001C127.541 39.3946 126.921 40.1963 126.175 40.8664C125.441 41.5225 124.6 42.0434 123.69 42.4054C122.773 42.7709 121.796 42.9569 120.81 42.9537C120.195 42.9674 119.581 42.8871 118.99 42.7156C118.557 42.5847 118.146 42.3924 117.767 42.1445C117.415 41.9199 117.096 41.6472 116.818 41.3341L116.01 48H113L115.403 28.1598H117.579L118.072 29.6363C118.417 29.3195 118.796 29.0429 119.202 28.8115C119.661 28.5905 120.138 28.4071 120.626 28.2632C121.275 28.0774 121.947 27.9891 122.621 28.0011ZM120.981 40.1918C121.562 40.1915 122.137 40.0755 122.675 39.8504C123.23 39.6188 123.741 39.2881 124.182 38.874C124.641 38.445 125.026 37.9405 125.319 37.3819C125.631 36.79 125.829 36.1438 125.903 35.4773C125.991 34.8408 125.95 34.1926 125.782 33.5728C125.629 33.0255 125.364 32.5169 125.005 32.0795C124.659 31.6619 124.224 31.329 123.734 31.1056C123.227 30.8752 122.677 30.7587 122.122 30.7641C121.538 30.765 120.961 30.8809 120.421 31.1056C119.863 31.3326 119.351 31.6628 118.912 32.0795C118.456 32.5126 118.074 33.0197 117.782 33.58C117.473 34.1701 117.276 34.8136 117.2 35.4773C117.111 36.1139 117.153 36.7621 117.321 37.3819C117.473 37.9277 117.734 38.4357 118.089 38.874C118.433 39.2946 118.868 39.6288 119.361 39.8504C119.871 40.0801 120.423 40.1965 120.981 40.1918Z"/><path d="M142.589 22H145.611L144.8 28.7498C145.094 28.5782 145.415 28.4122 145.763 28.2519C146.071 28.1436 146.424 28.0336 146.821 27.922C147.245 27.8059 147.683 27.749 148.122 27.7528C148.969 27.7488 149.806 27.9379 150.573 28.3064C151.339 28.6749 152.015 29.2135 152.553 29.8831C153.107 30.5855 153.513 31.398 153.744 32.269C154.005 33.2638 154.067 34.302 153.928 35.3219C153.808 36.391 153.497 37.4284 153.01 38.3822C152.556 39.276 151.96 40.0858 151.244 40.7778C150.562 41.435 149.771 41.9627 148.908 42.3359C148.085 42.6978 147.2 42.8866 146.304 42.891C145.879 42.8965 145.454 42.8474 145.04 42.745C144.706 42.6622 144.379 42.5498 144.063 42.409C143.758 42.2902 143.473 42.1221 143.219 41.9111L142.488 48H139.467L140.198 41.9111C139.893 42.1074 139.571 42.2741 139.236 42.409C138.887 42.5496 138.528 42.6619 138.161 42.745C137.741 42.844 137.311 42.893 136.88 42.8911C136.027 42.8962 135.183 42.7066 134.41 42.336C133.65 41.9741 132.978 41.4415 132.446 40.7778C131.891 40.0757 131.486 39.2626 131.256 38.3908C130.994 37.3908 130.932 36.3471 131.074 35.322C131.193 34.2553 131.504 33.2203 131.991 32.2691C132.445 31.379 133.041 30.5726 133.755 29.8832C134.438 29.2237 135.23 28.6929 136.094 28.3153C136.916 27.9493 137.802 27.7579 138.698 27.7529C139.118 27.7494 139.537 27.8063 139.941 27.9221C140.322 28.0341 140.654 28.1441 140.936 28.252C141.233 28.3872 141.516 28.5541 141.779 28.7499L142.589 22ZM141.405 31.8673C141.186 31.6231 140.943 31.4024 140.68 31.2087C140.419 31.0213 140.137 30.8672 139.84 30.7498C139.478 30.6103 139.094 30.5426 138.708 30.5502C138.161 30.5521 137.62 30.6638 137.115 30.8789C136.588 31.1001 136.109 31.4252 135.704 31.8356C135.274 32.2718 134.918 32.7793 134.653 33.3366C134.358 33.9612 134.17 34.6325 134.095 35.3219C134.001 35.9908 134.028 36.6716 134.175 37.3305C134.296 37.8742 134.531 38.3844 134.865 38.8253C135.181 39.2306 135.586 39.5528 136.048 39.765C136.524 39.9852 137.04 40.0978 137.561 40.0949C137.962 40.0991 138.361 40.0336 138.741 39.9014C139.075 39.7861 139.395 39.63 139.692 39.4364C140.006 39.246 140.302 39.025 140.575 38.7767L141.405 31.8673ZM143.596 38.7766C143.816 39.0203 144.059 39.2413 144.321 39.4364C144.582 39.6234 144.864 39.7772 145.162 39.8941C145.524 40.0342 145.908 40.1024 146.295 40.095C146.841 40.0925 147.381 39.9804 147.885 39.7651C148.409 39.5461 148.888 39.2272 149.296 38.8253C149.728 38.3938 150.083 37.8878 150.345 37.3305C150.641 36.6981 150.831 36.0191 150.906 35.322C151.001 34.6588 150.973 33.9834 150.825 33.3305C150.699 32.7886 150.464 32.2795 150.135 31.8357C149.824 31.4215 149.418 31.0927 148.952 30.8789C148.477 30.6591 147.961 30.547 147.44 30.5502C147.038 30.5457 146.638 30.6132 146.259 30.7499C145.928 30.8698 145.61 31.0236 145.309 31.2088C144.994 31.3977 144.698 31.6183 144.426 31.8673L143.596 38.7766Z"/><path d="M109 39H105V43H109V39Z"/></symbol><symbol viewBox="0 0 17 13" id="mail" xmlns="http://www.w3.org/2000/svg"><path d="M17 1.625C17 0.73125 16.235 0 15.3 0H1.7C0.765 0 0 0.73125 0 1.625V11.375C0 12.2688 0.765 13 1.7 13H15.3C16.235 13 17 12.2688 17 11.375V1.625ZM15.3 1.625L8.5 5.6875L1.7 1.625H15.3ZM15.3 11.375H1.7V3.25L8.5 7.3125L15.3 3.25V11.375Z"/></symbol><symbol viewBox="0 0 13 17" id="map" xmlns="http://www.w3.org/2000/svg"><path d="M6.5 8.5C5.60625 8.5 4.875 7.735 4.875 6.8C4.875 5.865 5.60625 5.1 6.5 5.1C7.39375 5.1 8.125 5.865 8.125 6.8C8.125 7.735 7.39375 8.5 6.5 8.5ZM11.375 6.97C11.375 3.8845 9.22188 1.7 6.5 1.7C3.77813 1.7 1.625 3.8845 1.625 6.97C1.625 8.959 3.20937 11.594 6.5 14.739C9.79063 11.594 11.375 8.959 11.375 6.97ZM6.5 0C9.9125 0 13 2.737 13 6.97C13 9.792 10.8306 13.1325 6.5 17C2.16937 13.1325 0 9.792 0 6.97C0 2.737 3.0875 0 6.5 0Z"/></symbol><symbol viewBox="0 0 15 15" id="phone" xmlns="http://www.w3.org/2000/svg"><path d="M2.95 1.66667C3 2.40833 3.125 3.13333 3.325 3.825L2.325 4.825C1.98333 3.825 1.76667 2.76667 1.69167 1.66667H2.95ZM11.1667 11.6833C11.875 11.8833 12.6 12.0083 13.3333 12.0583V13.3C12.2333 13.225 11.175 13.0083 10.1667 12.675L11.1667 11.6833ZM3.75 0H0.833333C0.375 0 0 0.375 0 0.833333C0 8.65833 6.34167 15 14.1667 15C14.625 15 15 14.625 15 14.1667V11.2583C15 10.8 14.625 10.425 14.1667 10.425C13.1333 10.425 12.125 10.2583 11.1917 9.95C11.1083 9.91667 11.0167 9.90833 10.9333 9.90833C10.7167 9.90833 10.5083 9.99167 10.3417 10.15L8.50833 11.9833C6.15 10.775 4.21667 8.85 3.01667 6.49167L4.85 4.65833C5.08333 4.425 5.15 4.1 5.05833 3.80833C4.75 2.875 4.58333 1.875 4.58333 0.833333C4.58333 0.375 4.20833 0 3.75 0Z"/></symbol><symbol viewBox="0 0 15 15" id="search" xmlns="http://www.w3.org/2000/svg"><path d="M10.7204 9.43396H10.0429L9.80274 9.2024C10.6432 8.2247 11.1492 6.9554 11.1492 5.57461C11.1492 2.49571 8.65352 0 5.57461 0C2.49571 0 0 2.49571 0 5.57461C0 8.65352 2.49571 11.1492 5.57461 11.1492C6.9554 11.1492 8.2247 10.6432 9.2024 9.80274L9.43396 10.0429V10.7204L13.7221 15L15 13.7221L10.7204 9.43396ZM5.57461 9.43396C3.43911 9.43396 1.71527 7.71012 1.71527 5.57461C1.71527 3.43911 3.43911 1.71527 5.57461 1.71527C7.71012 1.71527 9.43396 3.43911 9.43396 5.57461C9.43396 7.71012 7.71012 9.43396 5.57461 9.43396Z"/></symbol><symbol viewBox="0 0 17 17" id="whatsup" xmlns="http://www.w3.org/2000/svg"><path d="M10.9017 9.3571C11.2877 9.47761 11.6575 9.6441 12.0031 9.85294L11.981 9.84019C12.3586 10.0066 12.6849 10.2014 12.9825 10.4302L12.9718 10.4224C12.9861 10.4656 12.9947 10.5145 12.9947 10.5662L12.994 10.5889V10.5882C12.9832 10.8921 12.9154 11.1775 12.8005 11.4375L12.8062 11.4226C12.6413 11.7506 12.3665 12.0034 12.0303 12.138L12.0203 12.1416C11.6724 12.322 11.2877 12.4216 10.8953 12.4327H10.891C10.142 12.3371 9.41815 12.1011 8.75805 11.7371L8.78875 11.7527C8.08761 11.4375 7.45003 10.9985 6.90708 10.4571L6.90636 10.4564C6.31415 9.84459 5.77719 9.18235 5.30166 8.47736L5.26811 8.42494C4.79621 7.81284 4.52243 7.07316 4.48289 6.30349L4.48217 6.29428V6.20645C4.49265 5.87767 4.57045 5.55445 4.71084 5.25646C4.85124 4.95848 5.05128 4.69197 5.2988 4.47316L5.30094 4.47104C5.45384 4.31987 5.65978 4.2333 5.87558 4.22949H5.8763C5.94839 4.23162 6.01764 4.23729 6.08474 4.2472L6.07546 4.24579C6.13756 4.25499 6.20966 4.26066 6.2839 4.26208H6.28604C6.38997 4.25205 6.49423 4.27754 6.58157 4.33433L6.58014 4.33362C6.65652 4.4172 6.71505 4.51849 6.75003 4.6297L6.75146 4.63537C6.81047 4.78176 6.9323 5.10381 7.11694 5.60153C7.21331 5.82395 7.30754 6.09807 7.3832 6.37999L7.3932 6.42461C7.34171 6.67114 7.2076 6.8931 7.01272 7.05432L7.01058 7.05574C6.75598 7.32301 6.62868 7.49301 6.62868 7.56573C6.6314 7.62537 6.65149 7.68294 6.6865 7.73148L6.68579 7.73078C6.96187 8.29712 7.3436 8.80642 7.81079 9.23173L7.81436 9.23527C8.30345 9.67246 8.85175 10.0396 9.44333 10.3261L9.48545 10.3445C9.55779 10.3911 9.6413 10.4177 9.72744 10.4217H9.72887C9.83975 10.4217 10.0391 10.2442 10.3271 9.88906C10.615 9.53395 10.8063 9.3564 10.901 9.3564L10.9017 9.3571ZM8.65526 15.1768H8.67096C9.60828 15.1781 10.5356 14.9853 11.3935 14.6108L11.35 14.6278C13.0318 13.9237 14.3431 12.6225 15.0355 10.9983L15.0527 10.9537C15.4024 10.1653 15.6059 9.2459 15.6059 8.27973C15.6059 7.31357 15.4024 6.39415 15.0355 5.56187L15.0527 5.60578C14.3431 3.93695 13.0318 2.63575 11.395 1.94867L11.35 1.93167C10.5555 1.58459 9.62893 1.38271 8.65526 1.38271C7.68159 1.38271 6.75503 1.58459 5.91627 1.94867L5.96053 1.93167C4.27873 2.63575 2.96742 3.93695 2.27499 5.56116L2.25786 5.60578C1.88981 6.45276 1.70149 7.36588 1.70464 8.28823C1.70233 9.74656 2.17257 11.167 3.04594 12.3399L3.03237 12.3215L2.15793 14.8807L4.83624 14.0349C5.95509 14.7827 7.27418 15.1804 8.62314 15.1768H8.65669H8.65526ZM8.65526 4.81206e-05H8.67882C9.84094 4.81206e-05 10.946 0.242297 11.9446 0.679338L11.8925 0.658796C13.9091 1.50667 15.4817 3.06712 16.3154 5.01433L16.3361 5.06816C16.7559 6.0152 17 7.11949 17 8.28044C17 9.4414 16.7559 10.5457 16.3154 11.5451L16.3361 11.4927C15.4817 13.4938 13.9091 15.0542 11.9468 15.8815L11.8925 15.9021C10.9452 16.3186 9.84023 16.5608 8.6781 16.5608H8.65383H8.65526H8.61743C7.14764 16.5608 5.76779 16.1776 4.57426 15.5068L4.61495 15.5281L0 17L1.50548 12.5524C0.719627 11.2697 0.306101 9.79647 0.310519 8.29532C0.310519 7.1294 0.55465 6.02016 0.995087 5.01503L0.974386 5.06816C1.82885 3.06712 3.40143 1.50667 5.36376 0.679338L5.41801 0.658796C6.4319 0.22055 7.52652 -0.00377758 8.63242 4.81206e-05H8.65597H8.65455H8.65526Z"/></symbol></svg>