<?xml version="1.0" encoding="utf-8"?><svg viewBox="0 0 154 48" xmlns="http://www.w3.org/2000/svg" xmlns:xlink="http://www.w3.org/1999/xlink"><style>:root>svg{display:none}:root>svg:target{display:block}</style><svg fill="none" viewBox="0 0 48 48" id="arrow-down" xmlns="http://www.w3.org/2000/svg"><circle cx="24" cy="24" r="24" fill="#EC0D0D"/><path d="M19.41 22 24 26.327 28.59 22 30 23.332 24 29l-6-5.668L19.41 22Z" fill="#fff"/></svg><svg fill="none" viewBox="0 0 17 17" id="card" xmlns="http://www.w3.org/2000/svg"><path d="M12.363 9.35c.637 0 1.198-.348 1.487-.875l3.042-5.517a.847.847 0 0 0-.74-1.258H3.578L2.778 0H0v1.7h1.7l3.058 6.452-1.147 2.074c-.62 1.138.196 2.524 1.487 2.524h10.196v-1.7H5.098l.935-1.7h6.33ZM4.384 3.4h10.324l-2.345 4.25H6.398L4.384 3.4Zm.714 10.2c-.935 0-1.69.765-1.69 1.7 0 .935.755 1.7 1.69 1.7.935 0 1.7-.765 1.7-1.7 0-.935-.765-1.7-1.7-1.7Zm8.497 0c-.935 0-1.69.765-1.69 1.7 0 .935.755 1.7 1.69 1.7.935 0 1.7-.765 1.7-1.7 0-.935-.765-1.7-1.7-1.7Z" fill="#fff"/></svg><svg fill="none" viewBox="0 0 154 48" id="logo" xmlns="http://www.w3.org/2000/svg"><path d="M70 0H42v48h28V0Z" fill="#EC0D0D"/><path d="M58.081 29.412a9.487 9.487 0 0 1 3.255.53c.917.32 1.765.81 2.5 1.442a6.292 6.292 0 0 1 1.6 2.154 6.603 6.603 0 0 1 0 5.335 6.288 6.288 0 0 1-1.6 2.155 7.748 7.748 0 0 1-2.5 1.441 9.475 9.475 0 0 1-3.255.53H45V22h18.695v4.941H51.232v2.47h6.85Zm-.47 8.646a2.233 2.233 0 0 0 1.54-.539 1.733 1.733 0 0 0 .607-1.314 1.72 1.72 0 0 0-.608-1.314 2.236 2.236 0 0 0-1.539-.539h-6.38v3.706h6.38Z" fill="#fff"/><path d="M101 0H73v48h28V0Z" fill="#EC0D0D"/><path d="M83.177 22v11.5L93.324 22H98v21h-6.177V31.882L81.675 43H77V22h6.177Z" fill="#fff"/><path d="M38 0H0v48h38V0Z" fill="#EC0D0D"/><path d="M21.565 22v8.834L26.294 22H33.3l-6.13 10.334L34 43h-7.006l-5.43-9v9h-6.129v-9l-5.43 9H3l6.83-10.666L3.7 22h7.006l4.73 8.834V22h6.129ZM122.621 28.001a6.664 6.664 0 0 1 2.746.556 6.068 6.068 0 0 1 2.111 1.548 6.051 6.051 0 0 1 1.26 2.357c.265.981.33 2.007.19 3.015a8.634 8.634 0 0 1-.922 3.023 8.366 8.366 0 0 1-1.831 2.366 8.374 8.374 0 0 1-2.485 1.54 7.708 7.708 0 0 1-2.88.548 6.049 6.049 0 0 1-1.82-.238 4.737 4.737 0 0 1-1.223-.572 4.522 4.522 0 0 1-.949-.81L116.01 48H113l2.403-19.84h2.176l.493 1.476a6.236 6.236 0 0 1 1.13-.825 9.438 9.438 0 0 1 1.424-.548 6.807 6.807 0 0 1 1.995-.262Zm-1.64 12.19c.581 0 1.156-.116 1.694-.34a5.036 5.036 0 0 0 1.507-.977 5.61 5.61 0 0 0 1.137-1.492 5.35 5.35 0 0 0 .584-1.905 4.78 4.78 0 0 0-.121-1.904 4.09 4.09 0 0 0-.777-1.493 3.58 3.58 0 0 0-1.271-.974 3.806 3.806 0 0 0-1.612-.342c-.584.001-1.161.117-1.701.342a4.844 4.844 0 0 0-1.509.974c-.456.433-.838.94-1.13 1.5a5.419 5.419 0 0 0-.582 1.897 4.762 4.762 0 0 0 .121 1.905 4.13 4.13 0 0 0 .768 1.492c.344.42.779.755 1.272.976.51.23 1.062.346 1.62.342ZM142.589 22h3.022l-.811 6.75c.294-.172.615-.338.963-.498.308-.108.661-.218 1.058-.33a4.77 4.77 0 0 1 1.301-.17 5.596 5.596 0 0 1 2.451.554 5.727 5.727 0 0 1 1.98 1.577c.554.703.96 1.515 1.191 2.386.261.995.323 2.033.184 3.053a8.918 8.918 0 0 1-.918 3.06 8.992 8.992 0 0 1-1.766 2.396 7.869 7.869 0 0 1-2.336 1.558 6.545 6.545 0 0 1-2.604.555 4.997 4.997 0 0 1-1.264-.146 5.873 5.873 0 0 1-.977-.336 3.059 3.059 0 0 1-.844-.498L142.488 48h-3.021l.731-6.089a5.738 5.738 0 0 1-.962.498 7.03 7.03 0 0 1-1.075.336c-.42.099-.85.148-1.281.146a5.634 5.634 0 0 1-2.47-.555 5.611 5.611 0 0 1-1.964-1.558 6.538 6.538 0 0 1-1.19-2.387 7.858 7.858 0 0 1-.182-3.069 8.854 8.854 0 0 1 .917-3.053 8.999 8.999 0 0 1 1.764-2.386 7.954 7.954 0 0 1 2.339-1.568 6.49 6.49 0 0 1 2.604-.562 4.38 4.38 0 0 1 1.243.17c.381.111.713.221.995.329.297.135.58.302.843.498l.81-6.75Zm-1.184 9.867a4.788 4.788 0 0 0-.725-.658 3.896 3.896 0 0 0-.84-.46 2.983 2.983 0 0 0-1.132-.199 4.1 4.1 0 0 0-1.593.329 4.346 4.346 0 0 0-1.411.957c-.43.436-.786.943-1.051 1.5a6.225 6.225 0 0 0-.558 1.986 5.63 5.63 0 0 0 .08 2.008c.121.544.356 1.054.69 1.495a3.19 3.19 0 0 0 1.183.94c.476.22.992.333 1.513.33.401.004.8-.061 1.18-.194a4.33 4.33 0 0 0 .951-.465c.314-.19.61-.411.883-.66l.83-6.909Zm2.191 6.91a5 5 0 0 0 .725.66c.261.186.543.34.841.457.362.14.746.208 1.133.201a4.093 4.093 0 0 0 1.59-.33 4.465 4.465 0 0 0 1.411-.94 5.298 5.298 0 0 0 1.049-1.495 6.339 6.339 0 0 0 .561-2.008 5.49 5.49 0 0 0-.081-1.992 4.05 4.05 0 0 0-.69-1.494 3.094 3.094 0 0 0-1.183-.957 3.548 3.548 0 0 0-1.512-.329 3.37 3.37 0 0 0-1.181.2c-.331.12-.649.274-.95.459-.315.189-.611.41-.883.658l-.83 6.91ZM109 39h-4v4h4v-4Z" fill="#fff"/></svg><svg fill="none" viewBox="0 0 17 13" id="mail" xmlns="http://www.w3.org/2000/svg"><path d="M17 1.625C17 .731 16.235 0 15.3 0H1.7C.765 0 0 .731 0 1.625v9.75C0 12.269.765 13 1.7 13h13.6c.935 0 1.7-.731 1.7-1.625v-9.75Zm-1.7 0L8.5 5.688 1.7 1.625h13.6Zm0 9.75H1.7V3.25l6.8 4.063 6.8-4.063v8.125Z" fill="#fff"/></svg><svg fill="none" viewBox="0 0 13 17" id="map" xmlns="http://www.w3.org/2000/svg"><path d="M6.5 8.5c-.894 0-1.625-.765-1.625-1.7 0-.935.731-1.7 1.625-1.7s1.625.765 1.625 1.7c0 .935-.731 1.7-1.625 1.7Zm4.875-1.53c0-3.085-2.153-5.27-4.875-5.27S1.625 3.884 1.625 6.97c0 1.989 1.584 4.624 4.875 7.769 3.29-3.145 4.875-5.78 4.875-7.769ZM6.5 0C9.912 0 13 2.737 13 6.97c0 2.822-2.17 6.163-6.5 10.03C2.17 13.133 0 9.792 0 6.97 0 2.737 3.087 0 6.5 0Z" fill="#fff"/></svg><svg fill="none" viewBox="0 0 15 15" id="phone" xmlns="http://www.w3.org/2000/svg"><path d="M2.95 1.667c.05.741.175 1.466.375 2.158l-1 1c-.342-1-.558-2.058-.633-3.158H2.95Zm8.217 10.016c.708.2 1.433.325 2.166.375V13.3a12.856 12.856 0 0 1-3.166-.625l1-.992ZM3.75 0H.833A.836.836 0 0 0 0 .833C0 8.658 6.342 15 14.167 15a.836.836 0 0 0 .833-.833v-2.909a.836.836 0 0 0-.833-.833 9.506 9.506 0 0 1-2.975-.475.7.7 0 0 0-.259-.042.853.853 0 0 0-.591.242l-1.834 1.833a12.624 12.624 0 0 1-5.491-5.491L4.85 4.658a.836.836 0 0 0 .208-.85A9.467 9.467 0 0 1 4.583.833.836.836 0 0 0 3.75 0Z" fill="#fff"/></svg><svg fill="none" viewBox="0 0 15 15" id="search" xmlns="http://www.w3.org/2000/svg"><path d="M10.72 9.434h-.677l-.24-.232a5.55 5.55 0 0 0 1.346-3.627 5.574 5.574 0 1 0-5.574 5.574 5.55 5.55 0 0 0 3.627-1.346l.232.24v.677L13.722 15 15 13.722l-4.28-4.288Zm-5.145 0a3.854 3.854 0 0 1-3.86-3.86 3.854 3.854 0 0 1 3.86-3.859 3.854 3.854 0 0 1 3.859 3.86 3.854 3.854 0 0 1-3.86 3.859Z" fill="#fff"/></svg><svg fill="none" viewBox="0 0 17 17" id="whatsup" xmlns="http://www.w3.org/2000/svg"><path d="M10.902 9.357c.386.12.756.287 1.101.496l-.022-.013c.378.167.704.361 1.002.59l-.011-.008a.46.46 0 0 1 .023.144l-.001.023c-.01.303-.079.588-.194.848l.006-.014c-.165.328-.44.58-.776.715l-.01.004c-.348.18-.732.28-1.125.29h-.004a5.987 5.987 0 0 1-2.133-.695l.03.016a6.355 6.355 0 0 1-1.88-1.296h-.002a14.52 14.52 0 0 1-1.604-1.98l-.034-.052a3.793 3.793 0 0 1-.785-2.122V6.206a2.409 2.409 0 0 1 .816-1.733l.002-.002a.838.838 0 0 1 .575-.242c.072.003.142.008.209.018l-.01-.001c.063.009.135.015.209.016h.002a.461.461 0 0 1 .296.072H6.58a.791.791 0 0 1 .17.296l.001.005c.06.147.181.469.366.967.096.222.19.496.266.778l.01.045a1.113 1.113 0 0 1-.38.63H7.01c-.255.268-.382.438-.382.51.002.06.022.118.058.166h-.001a4.983 4.983 0 0 0 1.125 1.5l.003.004c.49.437 1.038.805 1.63 1.091l.041.018a.489.489 0 0 0 .242.078h.002c.11 0 .31-.178.598-.533.288-.355.48-.533.574-.533v.001Zm-2.247 5.82h.016a6.783 6.783 0 0 0 2.723-.566l-.044.017a6.86 6.86 0 0 0 3.686-3.63l.017-.044c.35-.789.553-1.708.553-2.674s-.204-1.886-.57-2.718l.017.044a6.86 6.86 0 0 0-3.658-3.657l-.045-.017a6.772 6.772 0 0 0-2.695-.55c-.973 0-1.9.203-2.739.567l.045-.017a6.86 6.86 0 0 0-3.686 3.63l-.017.044a6.673 6.673 0 0 0-.553 2.682 6.765 6.765 0 0 0 1.34 4.052l-.013-.018-.874 2.559 2.678-.846a6.783 6.783 0 0 0 3.787 1.142h.034-.002ZM8.655 0h.024c1.162 0 2.267.242 3.266.68l-.053-.021c2.017.848 3.59 2.408 4.423 4.355l.021.054c.42.947.664 2.051.664 3.212a8.074 8.074 0 0 1-.685 3.265l.021-.052a8.262 8.262 0 0 1-4.39 4.389l-.053.02a8.033 8.033 0 0 1-3.215.659h-.024.001-.038c-1.47 0-2.85-.383-4.043-1.054l.041.021L0 17l1.505-4.448A8.102 8.102 0 0 1 .311 8.295c0-1.166.244-2.275.684-3.28l-.02.053A8.263 8.263 0 0 1 5.363.68l.054-.02A8.033 8.033 0 0 1 8.632 0h.024-.001Z" fill="#fff"/></svg></svg>